<?xml version="1.0" encoding="UTF-8"?>
<svg width="800px" height="600px" viewBox="0 0 800 600" version="1.1" xmlns="http://www.w3.org/2000/svg" xmlns:xlink="http://www.w3.org/1999/xlink">
    <title>Cloud Storage Hero Image</title>
    <defs>
        <linearGradient x1="0%" y1="0%" x2="100%" y2="100%" id="linearGradient-1">
            <stop stop-color="#3B82F6" offset="0%"></stop>
            <stop stop-color="#2563EB" offset="100%"></stop>
        </linearGradient>
        <linearGradient x1="0%" y1="0%" x2="100%" y2="100%" id="linearGradient-2">
            <stop stop-color="#FFFFFF" offset="0%"></stop>
            <stop stop-color="#E2E8F0" offset="100%"></stop>
        </linearGradient>
        <linearGradient x1="0%" y1="0%" x2="100%" y2="100%" id="linearGradient-3">
            <stop stop-color="#93C5FD" offset="0%"></stop>
            <stop stop-color="#60A5FA" offset="100%"></stop>
        </linearGradient>
    </defs>
    <g id="Cloud-Storage" stroke="none" stroke-width="1" fill="none" fill-rule="evenodd">
        <!-- Background Elements -->
        <circle id="Background-Circle-1" fill="url(#linearGradient-3)" opacity="0.3" cx="650" cy="150" r="100"></circle>
        <circle id="Background-Circle-2" fill="url(#linearGradient-3)" opacity="0.2" cx="200" cy="500" r="80"></circle>
        
        <!-- Main Cloud -->
        <g id="Main-Cloud" transform="translate(400, 250)">
            <path d="M-100,-40 C-120,-80 -80,-120 -40,-120 C-20,-160 40,-160 80,-120 C120,-140 160,-120 160,-80 C200,-60 200,-20 180,0 C200,40 180,80 140,80 C120,120 60,120 20,80 C-20,100 -60,80 -80,40 C-120,40 -140,0 -100,-40 Z" fill="url(#linearGradient-2)" stroke="#BFDBFE" stroke-width="2"></path>
            
            <!-- Cloud Icon -->
            <g id="Cloud-Icon" transform="translate(0, -20)">
                <circle id="Cloud-Background" fill="url(#linearGradient-1)" cx="0" cy="0" r="50"></circle>
                <path d="M-15,-10 C-25,-25 -10,-35 0,-30 C5,-40 20,-40 25,-30 C35,-35 45,-25 40,-15 C45,-5 40,5 30,5 C25,15 10,15 0,5 C-10,10 -20,5 -25,-5 C-30,0 -20,-5 -15,-10 Z" fill="#FFFFFF" transform="translate(0, 0) scale(1.2)"></path>
            </g>
        </g>
        
        <!-- Documents -->
        <g id="Documents" transform="translate(250, 300)">
            <!-- Document 1 -->
            <g id="Document-1" transform="translate(-80, -100) rotate(-15)">
                <rect id="Doc-1-Bg" fill="#FFFFFF" x="0" y="0" width="70" height="90" rx="4"></rect>
                <rect id="Doc-1-Header" fill="#3B82F6" x="10" y="10" width="50" height="6" rx="2"></rect>
                <rect id="Doc-1-Line-1" fill="#E2E8F0" x="10" y="25" width="50" height="4" rx="2"></rect>
                <rect id="Doc-1-Line-2" fill="#E2E8F0" x="10" y="35" width="40" height="4" rx="2"></rect>
                <rect id="Doc-1-Line-3" fill="#E2E8F0" x="10" y="45" width="45" height="4" rx="2"></rect>
                <circle id="Doc-1-Icon" fill="#3B82F6" cx="50" cy="65" r="10"></circle>
            </g>
            
            <!-- Document 2 -->
            <g id="Document-2" transform="translate(0, -80) rotate(5)">
                <rect id="Doc-2-Bg" fill="#FFFFFF" x="0" y="0" width="70" height="90" rx="4"></rect>
                <rect id="Doc-2-Header" fill="#10B981" x="10" y="10" width="50" height="6" rx="2"></rect>
                <rect id="Doc-2-Line-1" fill="#E2E8F0" x="10" y="25" width="50" height="4" rx="2"></rect>
                <rect id="Doc-2-Line-2" fill="#E2E8F0" x="10" y="35" width="40" height="4" rx="2"></rect>
                <rect id="Doc-2-Line-3" fill="#E2E8F0" x="10" y="45" width="45" height="4" rx="2"></rect>
                <circle id="Doc-2-Icon" fill="#10B981" cx="50" cy="65" r="10"></circle>
            </g>
            
            <!-- Document 3 -->
            <g id="Document-3" transform="translate(80, -90) rotate(15)">
                <rect id="Doc-3-Bg" fill="#FFFFFF" x="0" y="0" width="70" height="90" rx="4"></rect>
                <rect id="Doc-3-Header" fill="#F59E0B" x="10" y="10" width="50" height="6" rx="2"></rect>
                <rect id="Doc-3-Line-1" fill="#E2E8F0" x="10" y="25" width="50" height="4" rx="2"></rect>
                <rect id="Doc-3-Line-2" fill="#E2E8F0" x="10" y="35" width="40" height="4" rx="2"></rect>
                <rect id="Doc-3-Line-3" fill="#E2E8F0" x="10" y="45" width="45" height="4" rx="2"></rect>
                <circle id="Doc-3-Icon" fill="#F59E0B" cx="50" cy="65" r="10"></circle>
            </g>
        </g>
        
        <!-- Connection Lines -->
        <path d="M320,220 C350,200 380,200 400,230" stroke="#BFDBFE" stroke-width="2" stroke-dasharray="5,5"></path>
        <path d="M480,220 C450,200 420,200 400,230" stroke="#BFDBFE" stroke-width="2" stroke-dasharray="5,5"></path>
        <path d="M400,320 C400,350 400,380 400,400" stroke="#BFDBFE" stroke-width="2" stroke-dasharray="5,5"></path>
        
        <!-- Devices -->
        <g id="Laptop" transform="translate(550, 400)">
            <rect id="Laptop-Base" fill="#1E293B" x="-60" y="0" width="120" height="10" rx="2"></rect>
            <rect id="Laptop-Screen" fill="#1E293B" x="-50" y="-60" width="100" height="60" rx="2"></rect>
            <rect id="Laptop-Display" fill="#BFDBFE" x="-45" y="-55" width="90" height="50" rx="1"></rect>
            <circle id="Laptop-Cloud" fill="#3B82F6" cx="0" cy="-30" r="15"></circle>
        </g>
        
        <g id="Mobile" transform="translate(250, 420)">
            <rect id="Mobile-Body" fill="#1E293B" x="-20" y="-40" width="40" height="80" rx="5"></rect>
            <rect id="Mobile-Screen" fill="#BFDBFE" x="-15" y="-35" width="30" height="60" rx="2"></rect>
            <circle id="Mobile-Button" fill="#E2E8F0" cx="0" cy="30" r="5"></circle>
            <circle id="Mobile-Cloud" fill="#3B82F6" cx="0" cy="-5" r="10"></circle>
        </g>
        
        <!-- Floating Icons -->
        <circle id="Icon-1" fill="#3B82F6" cx="150" cy="150" r="15"></circle>
        <path d="M150,145 L150,155 M145,150 L155,150" stroke="#FFFFFF" stroke-width="2"></path>
        
        <circle id="Icon-2" fill="#10B981" cx="650" cy="350" r="15"></circle>
        <path d="M645,350 L655,350 M650,345 L650,355" stroke="#FFFFFF" stroke-width="2"></path>
        
        <circle id="Icon-3" fill="#F59E0B" cx="200" cy="350" r="15"></circle>
        <path d="M195,345 L205,355 M195,355 L205,345" stroke="#FFFFFF" stroke-width="2"></path>
    </g>
</svg>
